<?xml version="1.0" standalone="no"?>
<!DOCTYPE svg PUBLIC "-//W3C//DTD SVG 20010904//EN"
 "http://www.w3.org/TR/2001/REC-SVG-20010904/DTD/svg10.dtd">
<svg version="1.0" xmlns="http://www.w3.org/2000/svg"
 width="800.000000pt" height="800.000000pt" viewBox="0 0 800.000000 800.000000"
 preserveAspectRatio="xMidYMid meet">
<metadata>
Created by potrace 1.14, written by Peter Selinger 2001-2017
</metadata>
<g transform="translate(0.000000,800.000000) scale(0.100000,-0.100000)"
fill="#000000" stroke="none">
<path d="M920 4000 l0 -3250 3070 0 3070 0 0 3250 0 3250 -3070 0 -3070 0 0
-3250z m5560 0 l0 -2670 -2490 0 -2490 0 0 2670 0 2670 2490 0 2490 0 0 -2670z"/>
<path d="M3560 5589 c-515 -66 -925 -334 -1092 -714 -55 -123 -84 -292 -73
-423 29 -370 259 -630 725 -817 146 -59 318 -109 647 -190 373 -91 487 -133
573 -211 100 -90 107 -228 17 -330 -82 -94 -196 -134 -402 -141 -107 -4 -161
-1 -230 12 -273 51 -465 210 -541 449 l-22 71 -412 3 -412 2 7 -72 c26 -293
169 -579 392 -788 341 -318 872 -456 1443 -374 557 80 934 374 1042 811 31
126 31 333 0 458 -89 356 -368 585 -922 757 -52 16 -214 61 -360 99 -588 156
-710 218 -710 360 0 93 69 176 195 234 119 55 192 70 355 70 133 0 151 -3 225
-28 175 -62 310 -194 331 -326 l7 -41 410 0 410 0 -6 84 c-13 161 -98 384
-200 522 -214 290 -548 475 -947 524 -98 12 -355 11 -450 -1z"/>
</g>
</svg>
